<svg xmlns="http://www.w3.org/2000/svg" xmlns:xlink="http://www.w3.org/1999/xlink" width="383" height="192.001" viewBox="0 0 383 192.001">
  <defs>
    <linearGradient id="linear-gradient" y1="1" x2="0.922" gradientUnits="objectBoundingBox">
      <stop offset="0" stop-color="#cf611a"/>
      <stop offset="1" stop-color="#ffc5a0"/>
    </linearGradient>
  </defs>
  <path id="Union_5" data-name="Union 5" d="M137,383V354.5a27.5,27.5,0,0,1,55,0v1A27.5,27.5,0,0,1,164.5,383Zm-41.5,0A27.5,27.5,0,0,1,68,355.5v-1a27.5,27.5,0,0,1,55,0V383Zm-74.78,0A20.719,20.719,0,0,1,0,362.28V355a28,28,0,1,1,28,28ZM137,290.5V262h27.5A27.5,27.5,0,0,1,192,289.5v1a27.5,27.5,0,0,1-55,0Zm-69,0v-1A27.5,27.5,0,0,1,95.5,262H123v28.5a27.5,27.5,0,1,1-55,0ZM0,290V262H28A28,28,0,1,1,0,290Zm137-65.5V197h27.5A27.5,27.5,0,1,1,137,224.5Zm-69,0A27.5,27.5,0,0,1,95.5,197H123v27.5a27.5,27.5,0,0,1-55,0ZM27.5,252A27.5,27.5,0,0,1,0,224.5V197H28.5a27.5,27.5,0,0,1,0,55ZM137,187V158.5a27.5,27.5,0,1,1,55,0v1A27.5,27.5,0,0,1,164.5,187Zm-41.5,0A27.5,27.5,0,0,1,68,159.5v-1a27.5,27.5,0,1,1,55,0V187ZM0,187V159a28,28,0,1,1,28,28Zm27-66A27,27,0,0,1,0,94V67H29a27,27,0,0,1,0,54ZM0,28V0H28A28,28,0,1,1,0,28Z" transform="translate(0 192.001) rotate(-90)" opacity="0.1" fill="url(#linear-gradient)"/>
</svg>
