<svg xmlns="http://www.w3.org/2000/svg" width="20.159" height="28.37" viewBox="0 0 20.159 28.37">
  <g id="card" transform="translate(-76.3 0.5)">
    <g id="Group_886" data-name="Group 886" transform="translate(83.186 6.558)">
      <g id="Group_885" data-name="Group 885">
        <path id="Path_171" data-name="Path 171" d="M207.941,128.268l-4.475-5.593-.583.673,4.345,5.489a4.117,4.117,0,0,1,.9,2.566v11.171h-6.674a4.279,4.279,0,0,1-4.274-4.274v-1.656h-.912V138.3a5.193,5.193,0,0,0,5.187,5.187h7.13a.456.456,0,0,0,.456-.456V131.4A5.037,5.037,0,0,0,207.941,128.268Z" transform="translate(-196.267 -122.675)" fill="#654fd3" stroke="#654fd3" stroke-width="1"/>
      </g>
    </g>
    <g id="Group_890" data-name="Group 890" transform="translate(86.836 0.912)">
      <g id="Group_889" data-name="Group 889">
        <rect id="Rectangle_591" data-name="Rectangle 591" width="0.912" height="11.404" fill="#e4e4e4" stroke="#ffc5a0" stroke-width="1"/>
      </g>
    </g>
    <g id="Group_892" data-name="Group 892" transform="translate(84.555 15.053)">
      <g id="Group_891" data-name="Group 891">
        <path id="Path_174" data-name="Path 174" d="M0,1H.912V5.474H0Z" fill="#ffc5a0" stroke="#ffc5a0" stroke-width="1"/>
      </g>
    </g>
    <g id="Group_894" data-name="Group 894" transform="translate(84.555 0.456)">
      <g id="Group_893" data-name="Group 893">
        <rect id="Rectangle_593" data-name="Rectangle 593" width="0.912" height="10.036" fill="#ffc5a0" stroke="#ffc5a0" stroke-width="1"/>
      </g>
    </g>
    <g id="Group_896" data-name="Group 896" transform="translate(79.081 2.281)">
      <g id="Group_895" data-name="Group 895">
        <rect id="Rectangle_594" data-name="Rectangle 594" width="0.912" height="5.93" fill="#e4e4e4" stroke="#ffc5a0" stroke-width="1"/>
      </g>
    </g>
    <g id="Group_898" data-name="Group 898" transform="translate(81.362 2.281)">
      <g id="Group_897" data-name="Group 897">
        <rect id="Rectangle_595" data-name="Rectangle 595" width="0.912" height="3.649" fill="#e4e4e4" stroke="#ffc5a0" stroke-width="1"/>
      </g>
    </g>
    <g id="Group_900" data-name="Group 900" transform="translate(79.081 15.053)">
      <g id="Group_899" data-name="Group 899">
        <path id="Path_173" data-name="Path 173" d="M122.66,281.6h-2.737a.456.456,0,0,0-.456.456v2.737a.456.456,0,0,0,.456.456h2.737a.456.456,0,0,0,.456-.456v-2.737A.456.456,0,0,0,122.66,281.6Zm-.456,2.737h-1.825v-1.825H122.2Z" transform="translate(-119.467 -281.6)" fill="#ffc5a0" stroke="#ffc5a0" stroke-width="1"/>
      </g>
    </g>
    <g id="Group_902" data-name="Group 902" transform="translate(76.8)">
      <g id="Group_883" data-name="Group 883">
        <path id="Path_170" data-name="Path 170" d="M88.2,0H79.081A2.283,2.283,0,0,0,76.8,2.281V18.7a2.283,2.283,0,0,0,2.281,2.281h8.211v-.912H79.081A1.37,1.37,0,0,1,77.712,18.7V2.281A1.37,1.37,0,0,1,79.081.912H88.2a1.37,1.37,0,0,1,1.368,1.368V14.51h.912V2.281A2.283,2.283,0,0,0,88.2,0Z" transform="translate(-76.8)" fill="#ffc5a0" stroke="#ffc5a0" stroke-width="1"/>
      </g>
    </g>
    <g id="Group_903" data-name="Group 903" transform="translate(82.406 9.845)">
      <path id="Path_172" data-name="Path 172" d="M183.82,185.073a1.191,1.191,0,0,1,.837.375l6.13,6.514.665-.625-6.131-6.514a2.1,2.1,0,0,0-1.475-.661,2.072,2.072,0,0,0-1.505.571l-.046.045a2.106,2.106,0,0,0-.121,2.856l3.929,4.639v1.411a6.1,6.1,0,0,0,3.945,5.691l.32-.854a5.187,5.187,0,0,1-3.353-4.837v-1.578a.458.458,0,0,0-.108-.3l-4.036-4.766a1.2,1.2,0,0,1,.091-1.645A1.221,1.221,0,0,1,183.82,185.073Z" transform="translate(-181.674 -184.16)" fill="#654fd3" stroke="#654fd3" stroke-width="1"/>
    </g>
  </g>
</svg>
