<svg xmlns="http://www.w3.org/2000/svg" width="26.249" height="25.626" viewBox="0 0 26.249 25.626">
  <g id="Group_47" data-name="Group 47" transform="translate(-38.5 -407.873)">
    <g id="Subtraction_1" data-name="Subtraction 1" transform="translate(38 410)" fill="none" stroke-linecap="round" stroke-linejoin="round">
      <path d="M12,21A9,9,0,1,1,12,3v9h9A9.01,9.01,0,0,1,12,21Z" stroke="none"/>
      <path d="M 11.99970054626465 20.99970054626465 C 16.96187019348145 20.99970054626465 20.99970054626465 16.96317100524902 20.99970054626465 12.00060081481934 L 11.99970054626465 12.00060081481934 L 11.99970054626465 3.000600576400757 C 7.037080764770508 3.000600576400757 2.999700546264648 7.037980556488037 2.999700546264648 12.00060081481934 C 2.999700546264648 16.96272087097168 7.037080764770508 20.99970054626465 11.99970054626465 20.99970054626465 M 11.99970054626465 23.49970054626465 C 5.658580780029297 23.49970054626465 0.4997005462646484 18.34123039245605 0.4997005462646484 12.00060081481934 C 0.4997005462646484 5.659480571746826 5.658580780029297 0.5006006956100464 11.99970054626465 0.5006006956100464 C 13.38041019439697 0.5006006956100464 14.49970054626465 1.619890689849854 14.49970054626465 3.000600576400757 L 14.49970054626465 9.500600814819336 L 20.99970054626465 9.500600814819336 C 22.38041114807129 9.500600814819336 23.49970054626465 10.6198902130127 23.49970054626465 12.00060081481934 C 23.49970054626465 18.34123039245605 18.3408203125 23.49970054626465 11.99970054626465 23.49970054626465 Z" stroke="none" fill="#654fd3"/>
    </g>
    <g id="Intersection_1" data-name="Intersection 1" transform="translate(55 408)" fill="none" stroke-linecap="round" stroke-linejoin="round">
      <path d="M2,7V2.374A8.526,8.526,0,0,1,7.248,7Z" stroke="none"/>
      <path d="M 7.248256206512451 7.000196933746338 C 6.250906467437744 4.796096801757813 4.340456485748291 3.092926740646362 1.999796271324158 2.373536825180054 L 1.999796271324158 7.000196933746338 L 7.248256206512451 7.000196933746338 M 7.248256206512451 9.50019645690918 L 1.999796271324158 9.50019645690918 C 0.6190863251686096 9.50019645690918 -0.5002037286758423 8.38090705871582 -0.5002037286758423 7.000196933746338 L -0.5002037286758423 2.373536825180054 C -0.5002037286758423 1.580316781997681 -0.1237637028098106 0.8341567516326904 0.5142263174057007 0.3627967536449432 C 0.9495277404785156 0.04118217155337334 1.471485137939453 -0.1264857351779938 1.999955296516418 -0.1264857351779938 C 2.246013641357422 -0.1264857351779938 2.493375778198242 -0.09017724543809891 2.734256267547607 -0.01614324003458023 C 5.748336315155029 0.910216748714447 8.223806381225586 3.09192681312561 9.52592658996582 5.96955680847168 C 9.876036643981934 6.743276596069336 9.809416770935059 7.64181661605835 9.34904670715332 8.355446815490723 C 8.888666152954102 9.069076538085938 8.097496032714844 9.50019645690918 7.248256206512451 9.50019645690918 Z" stroke="none" fill="#ffc5a0"/>
    </g>
  </g>
</svg>
