<svg xmlns="http://www.w3.org/2000/svg" width="27.195" height="25.172" viewBox="0 0 27.195 25.172">
  <g id="import" transform="translate(0 25.172) rotate(-90)">
    <path id="Path_136" data-name="Path 136" d="M20.484,18.319H16.305v-2.48h4.179c1.243,0,2.208-.634,2.208-1.181v-11c0-.546-.964-1.181-2.208-1.181H4.687c-1.243,0-2.207.635-2.207,1.181v11c0,.546.964,1.181,2.207,1.181H8.866v2.48H4.687C2.059,18.318,0,16.71,0,14.657v-11C0,1.607,2.059,0,4.687,0h15.8c2.627,0,4.687,1.608,4.687,3.661v11C25.172,16.711,23.113,18.319,20.484,18.319Z" transform="translate(0 0)" fill="#654fd3"/>
    <path id="Path_137" data-name="Path 137" d="M8.662,11.939a1.236,1.236,0,0,0-.877.364L6.233,13.855V1.24a1.24,1.24,0,0,0-2.48,0v12.7L2.117,12.3A1.24,1.24,0,1,0,.363,14.056l3.7,3.7a1.235,1.235,0,0,0,.876.362H4.96a1.234,1.234,0,0,0,.876-.362l3.7-3.7a1.24,1.24,0,0,0-.877-2.116Z" transform="translate(7.676 9.075)" fill="#ffc5a0"/>
  </g>
</svg>
