<svg id="import" xmlns="http://www.w3.org/2000/svg" width="27.3" height="27.195" viewBox="0 0 27.3 27.195">
  <path id="Path_136" data-name="Path 136" d="M22.216,16.464H17.684v2.69h4.532c1.348,0,2.394.688,2.394,1.281V32.361c0,.592-1.046,1.281-2.394,1.281H5.083c-1.348,0-2.394-.689-2.394-1.281V20.436c0-.593,1.046-1.281,2.394-1.281H9.615v-2.69H5.083C2.233,16.465,0,18.209,0,20.436V32.361c0,2.227,2.233,3.97,5.083,3.97H22.217c2.85,0,5.083-1.744,5.083-3.97V20.436C27.3,18.208,25.067,16.464,22.216,16.464Z" transform="translate(0 -9.136)" fill="#ffc5a0"/>
  <path id="Path_137" data-name="Path 137" d="M27.966,13.066a1.34,1.34,0,0,0-.951.394l-1.684,1.683V1.462a1.345,1.345,0,0,0-2.69,0V15.234L20.868,13.46a1.344,1.344,0,1,0-1.9,1.9l4.015,4.015a1.34,1.34,0,0,0,.95.393h.02a1.338,1.338,0,0,0,.95-.393l4.015-4.015a1.345,1.345,0,0,0-.951-2.3Z" transform="translate(-10.247 -0.117)" fill="#654fd3"/>
</svg>
