<svg xmlns="http://www.w3.org/2000/svg" width="388.435" height="69.338" viewBox="0 0 388.435 69.338">
  <g id="Group_54" data-name="Group 54" transform="translate(-78.777 -50.812)">
    <path id="Path_134" data-name="Path 134" d="M-134.742-16.83c-.153,9.639,8.109,17.646,18,17.442a18.06,18.06,0,0,0,9.486-2.5,17.828,17.828,0,0,0,6.579-6.63v-9.945h-16.167v5.967h9.282v2.754a10.6,10.6,0,0,1-8.874,4.182c-6.681,0-11.22-4.743-11.22-11.271,0-6.426,4.386-11.067,10.812-11.067a11.032,11.032,0,0,1,9.384,4.947l4.9-4.029a16.867,16.867,0,0,0-14.178-7.293C-126.684-34.425-134.946-26.52-134.742-16.83Zm66.1,6.936a8.449,8.449,0,0,0-5.967-8.313,7.964,7.964,0,0,0,2.5-6.069c0-5.508-4.437-9.384-10.659-9.384H-94.707V0h14.994C-73.236,0-68.646-4.08-68.646-9.894Zm-14.688-17.85c2.805,0,4.386,1.428,4.386,3.825s-1.581,3.876-4.386,3.876h-4.743v-7.7Zm7.9,17.6c0,2.652-1.785,4.233-4.794,4.233h-7.854v-8.466h7.854C-77.214-14.382-75.429-12.75-75.429-10.149Zm10.455-6.681c-.2,9.639,8.058,17.646,17.9,17.442A16.546,16.546,0,0,0-32.181-7.752l-5.2-3.672q-3.6,5.661-9.639,5.661c-6.273,0-10.863-4.59-10.863-11.016S-53.295-27.9-47.022-27.9q6.043,0,9.639,5.661l5.2-3.672a16.7,16.7,0,0,0-14.841-8.364C-56.814-34.476-65.127-26.469-64.974-16.83Zm36.261,4.182A13.237,13.237,0,0,0-15.249.561c7.4.153,13.77-6.018,13.617-13.209C-1.479-19.839-7.8-25.908-15.2-25.806-22.593-25.959-28.866-19.839-28.713-12.648ZM-8.67-12.6A6.52,6.52,0,0,1-15.2-5.763c-3.825,0-6.528-2.907-6.528-6.834,0-4.029,2.7-6.936,6.528-6.936A6.608,6.608,0,0,1-8.67-12.6Zm35.6-3.06c0-6.12-3.621-10.149-9.486-10.149a10.321,10.321,0,0,0-7.4,2.856v-2.3H3.723V0h6.885V-14.739a4.633,4.633,0,0,1,4.794-4.9,4.554,4.554,0,0,1,4.692,4.9V0h6.834Zm22.8-9.588L43.35-10.965l-6.375-14.28H29.733L42.228.612h2.295l12.5-25.857ZM83.232-10.3a16.24,16.24,0,0,0,.459-3.774,11.487,11.487,0,0,0-11.883-11.73A13.021,13.021,0,0,0,58.6-12.6C58.446-5.3,64.617.765,72.42.612a15.435,15.435,0,0,0,10.1-3.774L79.662-7.854A11.383,11.383,0,0,1,72.624-5.3c-3.672,0-6.273-1.785-7.089-5Zm-17.7-4.845a6.218,6.218,0,0,1,6.018-5.1,5.137,5.137,0,0,1,5.457,5.1Zm46.716-.51c0-6.12-3.621-10.149-9.486-10.149a10.321,10.321,0,0,0-7.4,2.856v-2.3H89.046V0h6.885V-14.739a4.633,4.633,0,0,1,4.794-4.9,4.554,4.554,0,0,1,4.692,4.9V0h6.834ZM135.1-5.763c-1.785.153-2.856.2-3.264.2-3.264,0-4.692-1.071-4.692-3.927v-9.945h7.14v-5.814h-7.14V-31.62h-6.885v6.375H116.28v5.814h3.978V-8.874c0,6.324,3.723,9.486,10.1,9.486A19.53,19.53,0,0,0,135.1,0Z" transform="translate(332.113 103.406)" fill="#fff"/>
    <g id="mortarboard" transform="translate(78.777 50.812)">
      <path id="Path_1" data-name="Path 1" d="M120.244,281.39,90.22,266.744v19.333l30.026,13.334,30.026-13.334V266.742Z" transform="translate(-73.853 -230.074)" fill="#fff"/>
      <path id="Path_2" data-name="Path 2" d="M92.783,87.247,46.391,64.617,0,87.247l46.391,22.63,35.47-17.3v20.143H87.3V89.92Z" transform="translate(0 -64.617)" fill="#fff"/>
    </g>
  </g>
</svg>
