<svg xmlns="http://www.w3.org/2000/svg" width="25" height="27.5" viewBox="0 0 25 27.5">
  <g id="Icon_feather-lock" data-name="Icon feather-lock" transform="translate(-3.25 -1.75)">
    <path id="Path_18" data-name="Path 18" d="M7,16.5H24.5A2.533,2.533,0,0,1,27,19.065v8.978a2.533,2.533,0,0,1-2.5,2.565H7a2.533,2.533,0,0,1-2.5-2.565V19.065A2.533,2.533,0,0,1,7,16.5Z" transform="translate(0 -2.609)" fill="none" stroke="#654fd3" stroke-linecap="round" stroke-linejoin="round" stroke-width="2.5"/>
    <path id="Path_19" data-name="Path 19" d="M10.5,13.121v-4.5A5.887,5.887,0,0,1,16.62,3a5.887,5.887,0,0,1,6.12,5.623v4.5" transform="translate(-0.87)" fill="none" stroke="#ffc5a0" stroke-linecap="round" stroke-linejoin="round" stroke-width="2.5"/>
    <path id="Path_20" data-name="Path 20" d="M7,16.5H24.5A2.533,2.533,0,0,1,27,19.065v8.978a2.533,2.533,0,0,1-2.5,2.565H7a2.533,2.533,0,0,1-2.5-2.565V19.065A2.533,2.533,0,0,1,7,16.5Z" transform="translate(0 -2.609)" fill="none" stroke="#654fd3" stroke-linecap="round" stroke-linejoin="round" stroke-width="2.5"/>
  </g>
</svg>
