<svg xmlns="http://www.w3.org/2000/svg" width="12.102" height="12.102" viewBox="0 0 12.102 12.102">
  <g id="Group_879" data-name="Group 879" transform="translate(-3093.201 532.955)">
    <path id="Shape" d="M17.851,16.7A5.851,5.851,0,1,0,12,10.85a5.851,5.851,0,0,0,5.851,5.85Zm-4.04-3,.367-.212a.45.45,0,0,0-.45-.78l-.367.212a4.906,4.906,0,0,1-.438-1.623h.427a.45.45,0,1,0,0-.9h-.427a4.906,4.906,0,0,1,.438-1.623l.367.212a.45.45,0,0,0,.45-.78L13.811,8A5,5,0,0,1,15,6.811l.212.367a.45.45,0,1,0,.78-.45l-.21-.367a4.906,4.906,0,0,1,1.62-.438V6.35a.45.45,0,1,0,.9,0V5.923a4.906,4.906,0,0,1,1.62.438l-.212.367a.45.45,0,0,0,.78.45l.212-.367A5,5,0,0,1,21.889,8l-.367.212a.45.45,0,0,0,.45.78l.367-.212a4.906,4.906,0,0,1,.44,1.623h-.427a.45.45,0,1,0,0,.9h.427a4.906,4.906,0,0,1-.438,1.623l-.367-.212a.45.45,0,1,0-.45.78l.367.212A5,5,0,0,1,20.7,14.891l-.212-.367a.45.45,0,1,0-.78.45l.212.367a4.906,4.906,0,0,1-1.62.438v-.427a.45.45,0,1,0-.9,0v.427a4.906,4.906,0,0,1-1.623-.438l.212-.367a.45.45,0,1,0-.78-.45L15,14.891A5,5,0,0,1,13.81,13.7Z" transform="translate(3081.401 -537.753)" fill="#654fd3" stroke="#654fd3" stroke-width="0.4"/>
    <path id="Shape-2" data-name="Shape" d="M25.932,16.269a.45.45,0,0,0,.636-.636L24.9,13.964V11.45a.45.45,0,1,0-.9,0v2.7a.45.45,0,0,0,.132.318Z" transform="translate(3074.802 -541.053)" fill="#ffc5a0" stroke="#ffc5a0" stroke-width="0.4"/>
  </g>
</svg>
