<svg xmlns="http://www.w3.org/2000/svg" width="27.5" height="23.078" viewBox="0 0 27.5 23.078">
  <g id="Icon_feather-users" data-name="Icon feather-users" transform="translate(-0.25 -3.127)">
    <path id="Path_5" data-name="Path 5" d="M19.682,29.318V27.045A4.545,4.545,0,0,0,15.136,22.5H6.045A4.545,4.545,0,0,0,1.5,27.045v2.273" transform="translate(0 -4.364)" fill="none" stroke="#654fd3" stroke-linecap="round" stroke-linejoin="round" stroke-width="2.5"/>
    <path id="Path_6" data-name="Path 6" d="M16.591,9.045A4.545,4.545,0,1,1,12.045,4.5,4.545,4.545,0,0,1,16.591,9.045Z" transform="translate(-1.455)" fill="none" stroke="#654fd3" stroke-linecap="round" stroke-linejoin="round" stroke-width="2.5"/>
    <path id="Path_7" data-name="Path 7" d="M33.409,29.365V27.093A4.545,4.545,0,0,0,30,22.7" transform="translate(-6.909 -4.411)" fill="none" stroke="#ffc5a0" stroke-linecap="round" stroke-linejoin="round" stroke-width="2.5"/>
    <path id="Path_8" data-name="Path 8" d="M24,4.7A4.545,4.545,0,0,1,24,13.5" transform="translate(-5.455 -0.047)" fill="none" stroke="#ffc5a0" stroke-linecap="round" stroke-linejoin="round" stroke-width="2.5"/>
  </g>
</svg>
