<svg xmlns="http://www.w3.org/2000/svg" width="20.682" height="23.619" viewBox="0 0 20.682 23.619">
  <g id="Group_881" data-name="Group 881" transform="translate(-4266.25 87.25)">
    <path id="Path_5" data-name="Path 5" d="M19.682,29.318V27.045A4.545,4.545,0,0,0,15.136,22.5H6.045A4.545,4.545,0,0,0,1.5,27.045v2.273" transform="translate(4266 -94.864)" fill="none" stroke="#654fd3" stroke-linecap="round" stroke-linejoin="round" stroke-width="2.5"/>
    <path id="Path_6" data-name="Path 6" d="M16.591,9.045A4.545,4.545,0,1,1,12.045,4.5,4.545,4.545,0,0,1,16.591,9.045Z" transform="translate(4264.545 -90.5)" fill="none" stroke="#654fd3" stroke-linecap="round" stroke-linejoin="round" stroke-width="2.5"/>
    <path id="check" d="M2.845,6.029a.4.4,0,0,1-.282-.117L.117,3.466A.4.4,0,1,1,.682,2.9L2.845,5.065,7.455.456a.4.4,0,0,1,.565.565L3.128,5.912a.4.4,0,0,1-.282.117Zm0,0" transform="translate(4272.5 -70.16)" fill="#ffc5a0" stroke="#ffc5a0" stroke-width="1"/>
  </g>
</svg>
