<svg xmlns="http://www.w3.org/2000/svg" width="256.33" height="128.5" viewBox="0 0 256.33 128.5">
  <path id="Union_14" data-name="Union 14" d="M91.69,256.33V237.255a18.4,18.4,0,0,1,36.81,0v.67a18.405,18.405,0,0,1-18.4,18.4Zm-27.775,0a18.405,18.405,0,0,1-18.405-18.4v-.67a18.405,18.405,0,0,1,36.81,0V256.33Zm-50.048,0A13.867,13.867,0,0,1,0,242.463V237.59a18.739,18.739,0,1,1,18.74,18.74ZM91.69,194.423V175.348h18.4a18.405,18.405,0,0,1,18.4,18.4v.67a18.4,18.4,0,0,1-36.81,0Zm-46.18,0v-.67a18.405,18.405,0,0,1,18.405-18.4H82.32v19.075a18.405,18.405,0,0,1-36.81,0ZM0,194.088v-18.74H18.74A18.74,18.74,0,1,1,0,194.088Zm91.69-43.837v-18.4h18.4a18.4,18.4,0,1,1-18.4,18.4Zm-46.18,0a18.405,18.405,0,0,1,18.405-18.4H82.32v18.4a18.405,18.405,0,0,1-36.81,0Zm-27.105,18.4A18.405,18.405,0,0,1,0,150.251v-18.4H19.075a18.4,18.4,0,0,1,0,36.81Zm73.285-43.5V106.078a18.4,18.4,0,0,1,36.81,0v.67a18.405,18.405,0,0,1-18.4,18.405Zm-27.775,0A18.405,18.405,0,0,1,45.51,106.748v-.67a18.405,18.405,0,0,1,36.81,0v19.075ZM0,125.153v-18.74a18.739,18.739,0,1,1,18.74,18.74ZM18.07,80.981A18.07,18.07,0,0,1,0,62.911V44.841H19.409a18.07,18.07,0,1,1,0,36.14ZM0,18.739V0H18.74A18.739,18.739,0,1,1,0,18.739Z" transform="translate(0 128.5) rotate(-90)" fill="#4e9247" opacity="0.1"/>
</svg>
