<svg id="import" xmlns="http://www.w3.org/2000/svg" width="25.172" height="27.195" viewBox="0 0 25.172 27.195">
  <path id="Path_136" data-name="Path 136" d="M20.484,16.464H16.305v2.48h4.179c1.243,0,2.208.634,2.208,1.181v11c0,.546-.964,1.181-2.208,1.181H4.687c-1.243,0-2.207-.635-2.207-1.181v-11c0-.546.964-1.181,2.207-1.181H8.866v-2.48H4.687C2.059,16.465,0,18.073,0,20.126v11c0,2.053,2.059,3.661,4.687,3.661h15.8c2.627,0,4.687-1.608,4.687-3.661v-11C25.172,18.072,23.113,16.464,20.484,16.464Z" transform="translate(0 -7.588)" fill="#654fd3"/>
  <path id="Path_137" data-name="Path 137" d="M27.234,6.3a1.236,1.236,0,0,1-.877-.364L24.805,4.382V17a1.24,1.24,0,0,1-2.48,0V4.3L20.689,5.934a1.24,1.24,0,1,1-1.753-1.753l3.7-3.7a1.235,1.235,0,0,1,.876-.362h.019a1.234,1.234,0,0,1,.876.362l3.7,3.7A1.24,1.24,0,0,1,27.234,6.3Z" transform="translate(-10.896 -0.117)" fill="#ffc5a0"/>
</svg>
