<svg xmlns="http://www.w3.org/2000/svg" width="219.714" height="38.677" viewBox="0 0 219.714 38.677">
  <g id="Group_113" data-name="Group 113" transform="translate(-2061.941 122)">
    <path id="Path_134" data-name="Path 134" d="M-76.618-9.57A9.969,9.969,0,0,0-66.381.348a10.27,10.27,0,0,0,5.394-1.421,10.137,10.137,0,0,0,3.741-3.77V-10.5h-9.193v3.393h5.278v1.566a6.026,6.026,0,0,1-5.046,2.378,6.128,6.128,0,0,1-6.38-6.409,5.962,5.962,0,0,1,6.148-6.293A6.273,6.273,0,0,1-61.1-13.05l2.784-2.291a9.591,9.591,0,0,0-8.062-4.147A9.933,9.933,0,0,0-76.618-9.57Zm37.584,3.944a4.8,4.8,0,0,0-3.393-4.727A4.528,4.528,0,0,0-41.006-13.8c0-3.132-2.523-5.336-6.061-5.336h-6.786V0h8.526C-41.644,0-39.034-2.32-39.034-5.626Zm-8.352-10.15c1.595,0,2.494.812,2.494,2.175s-.9,2.2-2.494,2.2h-2.7v-4.379Zm4.495,10.005c0,1.508-1.015,2.407-2.726,2.407h-4.466V-8.178h4.466C-43.906-8.178-42.891-7.25-42.891-5.771Zm5.945-3.8A9.919,9.919,0,0,0-26.767.348,9.408,9.408,0,0,0-18.3-4.408L-21.257-6.5a6.233,6.233,0,0,1-5.481,3.219,6.01,6.01,0,0,1-6.177-6.264,6.058,6.058,0,0,1,6.177-6.322,6.233,6.233,0,0,1,5.481,3.219l2.958-2.088a9.493,9.493,0,0,0-8.439-4.756A9.979,9.979,0,0,0-36.946-9.57Zm20.619,2.378A7.527,7.527,0,0,0-8.671.319,7.6,7.6,0,0,0-.928-7.192a7.571,7.571,0,0,0-7.714-7.482A7.528,7.528,0,0,0-16.327-7.192Zm11.4.029A3.708,3.708,0,0,1-8.642-3.277a3.674,3.674,0,0,1-3.712-3.886,3.69,3.69,0,0,1,3.712-3.944A3.758,3.758,0,0,1-4.93-7.163ZM15.312-8.9c0-3.48-2.059-5.771-5.394-5.771a5.869,5.869,0,0,0-4.2,1.624v-1.305h-3.6V0H6.032V-8.381a2.634,2.634,0,0,1,2.726-2.784,2.589,2.589,0,0,1,2.668,2.784V0h3.886Zm12.963-5.452L24.65-6.235l-3.625-8.12H16.907l7.1,14.7h1.305l7.105-14.7Zm19.053,8.5A9.235,9.235,0,0,0,47.589-8a6.532,6.532,0,0,0-6.757-6.67,7.4,7.4,0,0,0-7.511,7.511A7.525,7.525,0,0,0,41.18.348,8.777,8.777,0,0,0,46.922-1.8L45.3-4.466a6.472,6.472,0,0,1-4,1.45,3.789,3.789,0,0,1-4.031-2.842ZM37.265-8.613a3.536,3.536,0,0,1,3.422-2.9,2.921,2.921,0,0,1,3.1,2.9ZM63.829-8.9c0-3.48-2.059-5.771-5.394-5.771a5.869,5.869,0,0,0-4.2,1.624v-1.305h-3.6V0h3.915V-8.381a2.634,2.634,0,0,1,2.726-2.784,2.589,2.589,0,0,1,2.668,2.784V0h3.886ZM76.821-3.277c-1.015.087-1.624.116-1.856.116-1.856,0-2.668-.609-2.668-2.233v-5.655h4.06v-3.306H72.3V-17.98H68.382v3.625H66.12v3.306h2.262v6c0,3.6,2.117,5.394,5.742,5.394A11.105,11.105,0,0,0,76.821,0Z" transform="translate(2204.834 -93.51)"/>
    <g id="mortarboard" transform="translate(2061.941 -122)">
      <path id="Path_1" data-name="Path 1" d="M106.968,274.913l-16.748-8.17v10.784l16.749,7.438,16.749-7.438V266.742Z" transform="translate(-81.09 -246.288)" fill="#654fd3"/>
      <path id="Path_2" data-name="Path 2" d="M51.755,77.24,25.878,64.617,0,77.24,25.878,89.864l19.786-9.652V91.448H48.7V78.731Z" transform="translate(0 -64.617)" fill="#ffc5a0"/>
    </g>
  </g>
</svg>
