<svg xmlns="http://www.w3.org/2000/svg" width="28.504" height="28.504" viewBox="0 0 28.504 28.504">
  <g id="Icon_feather-settings" data-name="Icon feather-settings" transform="translate(1.75 -0.25)">
    <path id="Path_21" data-name="Path 21" d="M20.592,17.046A3.546,3.546,0,1,1,17.046,13.5,3.546,3.546,0,0,1,20.592,17.046Z" transform="translate(-4.544 -2.544)" fill="none" stroke="#ffc5a0" stroke-linecap="round" stroke-linejoin="round" stroke-width="2.5"/>
    <path id="Path_22" data-name="Path 22" d="M23.249,18.048a1.95,1.95,0,0,0,.39,2.151l.071.071a2.365,2.365,0,1,1-3.345,3.345l-.071-.071a1.966,1.966,0,0,0-3.333,1.395v.2a2.364,2.364,0,1,1-4.728,0v-.106a1.95,1.95,0,0,0-1.277-1.785,1.95,1.95,0,0,0-2.151.39l-.071.071a2.365,2.365,0,1,1-3.345-3.345l.071-.071a1.966,1.966,0,0,0-1.395-3.333h-.2a2.364,2.364,0,0,1,0-4.728H3.97a1.95,1.95,0,0,0,1.785-1.277A1.95,1.95,0,0,0,5.365,8.8l-.071-.071A2.365,2.365,0,1,1,8.639,5.389l.071.071a1.95,1.95,0,0,0,2.151.39h.095a1.95,1.95,0,0,0,1.182-1.785v-.2a2.364,2.364,0,0,1,4.728,0V3.97A1.966,1.966,0,0,0,20.2,5.365l.071-.071a2.365,2.365,0,1,1,3.345,3.345l-.071.071a1.95,1.95,0,0,0-.39,2.151v.095a1.95,1.95,0,0,0,1.785,1.182h.2a2.364,2.364,0,1,1,0,4.728h-.106a1.95,1.95,0,0,0-1.785,1.182Z" transform="translate(-2)" fill="none" stroke="#654fd3" stroke-linecap="round" stroke-linejoin="round" stroke-width="2.5"/>
  </g>
</svg>
