<svg xmlns="http://www.w3.org/2000/svg" width="14.911" height="16.485" viewBox="0 0 14.911 16.485">
  <g id="Group_690" data-name="Group 690" transform="translate(-9.177)">
    <g id="Group_689" data-name="Group 689" transform="translate(0 5.05)">
      <path id="Path_151" data-name="Path 151" d="M4019.417,127.1a4.162,4.162,0,0,0-3.93,3.943" transform="translate(-4005.487 -129.096)" fill="none" stroke="#654fd3" stroke-linecap="round" stroke-width="1.5"/>
      <path id="Path_152" data-name="Path 152" d="M3.93,0A4.162,4.162,0,0,0,0,3.943" transform="translate(13.93 1.943) rotate(180)" fill="none" stroke="#654fd3" stroke-linecap="round" stroke-width="1.5"/>
    </g>
    <g id="Path_149" data-name="Path 149" transform="translate(5.532 -4.5)" fill="none" stroke-linecap="round" stroke-linejoin="round">
      <path d="M15.822,8.661A4.161,4.161,0,1,1,11.661,4.5,4.161,4.161,0,0,1,15.822,8.661Z" stroke="none"/>
      <path d="M 11.66077995300293 11.32144355773926 C 13.12794017791748 11.32144355773926 14.32155990600586 10.12785339355469 14.32155990600586 8.660723686218262 C 14.32155990600586 7.193593502044678 13.12794017791748 6.000003814697266 11.66077995300293 6.000003814697266 C 10.19361972808838 6.000003814697266 9 7.193593502044678 9 8.660723686218262 C 9 10.12785339355469 10.19361972808838 11.32144355773926 11.66077995300293 11.32144355773926 M 11.66077995300293 12.82144355773926 C 9.362839698791504 12.82144355773926 7.5 10.9586238861084 7.5 8.660723686218262 C 7.5 6.362823486328125 9.362850189208984 4.500003814697266 11.66077995300293 4.500003814697266 C 13.95872020721436 4.500003814697266 15.82155990600586 6.362823486328125 15.82155990600586 8.660723686218262 C 15.82155990600586 10.9586238861084 13.95872020721436 12.82144355773926 11.66077995300293 12.82144355773926 Z" stroke="none" fill="#ffc5a0"/>
    </g>
    <g id="Rectangle_429" data-name="Rectangle 429" transform="translate(11.088 8.485)" fill="none" stroke="#654fd3" stroke-width="1.5">
      <path d="M2,0h9a2,2,0,0,1,2,2V3A5,5,0,0,1,8,8H5A5,5,0,0,1,0,3V2A2,2,0,0,1,2,0Z" stroke="none"/>
      <path d="M2,.75h9A1.25,1.25,0,0,1,12.25,2V3A4.25,4.25,0,0,1,8,7.25H5A4.25,4.25,0,0,1,.75,3V2A1.25,1.25,0,0,1,2,.75Z" fill="none"/>
    </g>
  </g>
</svg>
